<svg width="1000" height="1000" viewBox="0 0 1000 1000" fill="none" xmlns="http://www.w3.org/2000/svg">
<path d="M500 1000C776.142 1000 1000 776.142 1000 500C1000 223.858 776.142 0 500 0C223.858 0 0 223.858 0 500C0 776.142 223.858 1000 500 1000Z" fill="white"/>
<path d="M500.038 163C408.503 163 397.025 163.388 361.077 165.028C325.203 166.664 300.703 172.363 279.264 180.693C257.101 189.306 238.305 200.831 219.569 219.568C200.831 238.304 189.306 257.102 180.694 279.265C172.362 300.703 166.665 325.203 165.027 361.077C163.387 397.025 163 408.503 163 500.038C163 591.57 163.387 603.048 165.027 638.997C166.665 674.87 172.362 699.371 180.694 720.808C189.307 742.971 200.832 761.767 219.569 780.506C238.306 799.242 257.101 810.767 279.264 819.38C300.703 827.711 325.203 833.408 361.077 835.046C397.025 836.685 408.503 837.073 500.038 837.073C591.57 837.073 603.048 836.685 638.997 835.046C674.87 833.409 699.371 827.711 720.808 819.38C742.971 810.767 761.767 799.242 780.506 780.506C799.242 761.767 810.767 742.971 819.38 720.808C827.711 699.371 833.409 674.87 835.046 638.997C836.685 603.048 837.073 591.57 837.073 500.038C837.073 408.503 836.685 397.025 835.046 361.077C833.409 325.203 827.711 300.703 819.38 279.265C810.767 257.102 799.242 238.304 780.506 219.568C761.767 200.831 742.971 189.306 720.808 180.693C699.371 172.363 674.87 166.664 638.997 165.028C603.048 163.388 591.57 163 500.038 163ZM500.038 223.727C590.029 223.727 600.689 224.071 636.228 225.693C669.09 227.191 686.935 232.681 698.811 237.297C714.544 243.412 725.771 250.714 737.564 262.508C749.359 274.302 756.662 285.53 762.776 301.262C767.392 313.138 772.883 330.985 774.381 363.845C776.002 399.384 776.347 410.045 776.347 500.037C776.347 590.029 776.002 600.689 774.381 636.228C772.883 669.09 767.392 686.935 762.776 698.811C756.662 714.544 749.359 725.771 737.564 737.564C725.771 749.359 714.543 756.662 698.812 762.776C686.935 767.392 669.089 772.883 636.228 774.381C600.695 776.002 590.036 776.347 500.037 776.347C410.038 776.347 399.38 776.002 363.845 774.38C330.984 772.883 313.138 767.392 301.263 762.776C285.529 756.662 274.302 749.359 262.509 737.564C250.715 725.771 243.412 714.543 237.297 698.812C232.681 686.935 227.192 669.089 225.693 636.228C224.071 600.689 223.727 590.029 223.727 500.037C223.727 410.045 224.071 399.384 225.693 363.845C227.192 330.984 232.681 313.138 237.297 301.263C243.412 285.529 250.715 274.302 262.508 262.509C274.302 250.714 285.53 243.412 301.262 237.297C313.138 232.681 330.985 227.191 363.845 225.693C399.384 224.071 410.045 223.727 500.037 223.727" fill="#100F0D"/>
<path d="M500.038 612.383C437.989 612.383 387.691 562.084 387.691 500.038C387.691 437.989 437.989 387.691 500.038 387.691C562.084 387.691 612.383 437.989 612.383 500.038C612.383 562.084 562.084 612.383 500.038 612.383ZM500.038 326.964C404.451 326.964 326.964 404.451 326.964 500.038C326.964 595.623 404.451 673.11 500.038 673.11C595.623 673.11 673.109 595.623 673.109 500.038C673.109 404.451 595.623 326.964 500.038 326.964ZM720.393 320.126C720.393 342.464 702.284 360.57 679.948 360.57C657.612 360.57 639.504 342.464 639.504 320.126C639.504 297.789 657.612 279.681 679.948 279.681C702.284 279.681 720.393 297.789 720.393 320.126Z" fill="#100F0D"/>
</svg>
