<svg width="1000" height="1000" viewBox="0 0 1000 1000" fill="none" xmlns="http://www.w3.org/2000/svg">
<path d="M500 1000C776.142 1000 1000 776.142 1000 500C1000 223.858 776.142 0 500 0C223.858 0 0 223.858 0 500C0 776.142 223.858 1000 500 1000Z" fill="white"/>
<path d="M426 379C439.918 379 451.2 390.283 451.2 404.2C451.2 418.118 439.918 429.4 426 429.4C412.082 429.4 400.8 418.118 400.8 404.2C400.8 390.283 412.082 379 426 379Z" fill="#101828"/>
<path d="M325.2 379C339.118 379 350.4 390.283 350.4 404.2C350.4 418.118 339.118 429.4 325.2 429.4C311.282 429.4 300 418.118 300 404.2C300 390.283 311.282 379 325.2 379Z" fill="#101828"/>
<path d="M526.8 379C540.718 379 552 390.283 552 404.2C552 418.118 540.718 429.4 526.8 429.4C512.882 429.4 501.6 418.118 501.6 404.2C501.6 390.283 512.882 379 526.8 379Z" fill="#101828"/>
<path d="M325.894 551.125L204 649.625V255.625C204 249.094 206.594 242.831 211.213 238.212C215.831 233.594 222.094 231 228.625 231H622.625C629.156 231 635.419 233.594 640.038 238.212C644.656 242.831 647.25 249.094 647.25 255.625V526.5C647.25 533.031 644.656 539.294 640.038 543.912C635.419 548.531 629.156 551.125 622.625 551.125H325.894Z" stroke="#101828" stroke-width="35.46" stroke-linecap="round" stroke-linejoin="round"/>
<path d="M351.75 551.125V674.25C351.75 680.781 354.344 687.044 358.963 691.662C363.581 696.281 369.844 698.875 376.375 698.875H673.106L795 797.375V403.375C795 396.844 792.406 390.581 787.788 385.962C783.169 381.344 776.906 378.75 770.375 378.75H647.25" stroke="#101828" stroke-width="35.46" stroke-linecap="round" stroke-linejoin="round"/>
</svg>
