<svg width="1000" height="1000" viewBox="0 0 1000 1000" fill="none" xmlns="http://www.w3.org/2000/svg">
<path d="M500 1000C776.142 1000 1000 776.142 1000 500C1000 223.858 776.142 0 500 0C223.858 0 0 223.858 0 500C0 776.142 223.858 1000 500 1000Z" fill="white"/>
<path d="M590.054 225.037C634.383 236.934 674.803 260.281 707.258 292.736C739.712 325.191 763.06 365.611 774.957 409.94" stroke="#101828" stroke-width="30" stroke-linecap="round" stroke-linejoin="round"/>
<path d="M562.95 325.977C589.611 333.057 613.927 347.06 633.432 366.566C652.938 386.072 666.941 410.387 674.022 437.049" stroke="#101828" stroke-width="30" stroke-linecap="round" stroke-linejoin="round"/>
<path d="M371.508 502.065C398.402 557.602 443.309 602.394 498.915 629.145C503.016 631.087 507.553 631.928 512.078 631.584C516.604 631.24 520.961 629.724 524.723 627.185L606.393 572.629C610.002 570.181 614.171 568.688 618.513 568.288C622.855 567.888 627.227 568.595 631.221 570.342L784.109 636.005C789.334 638.18 793.7 642.012 796.533 646.912C799.366 651.811 800.511 657.506 799.79 663.12C794.944 700.941 776.483 735.701 747.862 760.895C719.24 786.089 682.419 799.991 644.289 800C526.456 800 413.449 753.191 330.129 669.871C246.809 586.551 200 473.544 200 355.711C200.009 317.581 213.911 280.76 239.105 252.138C264.299 223.517 299.059 205.056 336.88 200.21C342.494 199.489 348.189 200.634 353.088 203.467C357.988 206.3 361.82 210.666 363.995 215.891L429.658 369.105C431.366 373.037 432.08 377.328 431.738 381.601C431.396 385.873 430.009 389.997 427.698 393.607L373.142 476.584C370.713 480.337 369.287 484.65 369.002 489.112C368.716 493.573 369.579 498.033 371.508 502.065V502.065Z" stroke="#101828" stroke-width="30" stroke-linecap="round" stroke-linejoin="round"/>
</svg>
