<svg width="1000" height="1000" viewBox="0 0 1000 1000" fill="none" xmlns="http://www.w3.org/2000/svg">
<path d="M500 1000C776.142 1000 1000 776.142 1000 500C1000 223.858 776.142 0 500 0C223.858 0 0 223.858 0 500C0 776.142 223.858 1000 500 1000Z" fill="white"/>
<path d="M803.243 360.31C786.612 323.365 762.739 290.195 732.428 261.61C702.116 233.294 666.977 210.911 627.814 195.27C587.31 179.09 544.391 171 500.131 171C455.872 171 412.953 179.09 372.449 195.27C333.286 210.911 298.146 233.025 267.835 261.61C237.524 290.195 213.651 323.365 197.02 360.31C179.852 398.603 171 439.593 171 481.662C171 555.283 198.36 625.937 248.521 682.029L221.697 829L364.401 765.088C407.052 783.425 452.384 792.594 499.863 792.594C544.122 792.594 587.041 784.504 627.545 768.324C666.708 752.683 701.848 730.57 732.159 701.984C762.47 673.399 786.343 640.229 802.974 603.284C820.142 564.991 828.994 524.001 828.994 481.932C829.262 439.593 820.41 398.873 803.243 360.31Z" fill="black"/>
<path d="M633.716 543.681C619.767 536.669 609.575 532.354 602.332 529.658C597.772 528.04 587.042 523.186 583.287 526.152C571.484 535.86 558.877 563.367 545.465 568.49C512.203 562.018 481.356 539.096 457.214 515.635C446.484 505.387 426.635 476.263 422.343 468.442C421.538 460.352 436.023 449.565 439.241 443.363C455.872 424.486 443.266 412.62 441.12 404.799C437.364 396.709 430.927 382.147 425.294 370.281C420.465 362.461 419.391 350.865 410.808 346.55C374.327 327.673 353.405 365.427 344.822 385.113C293.051 510.511 604.209 749.171 667.514 584.671C670.733 570.378 669.392 564.985 664.563 558.513C654.907 551.771 643.641 548.804 633.716 543.681Z" fill="white"/>
</svg>
