<svg width="23" height="23" viewBox="0 0 23 23" fill="none" xmlns="http://www.w3.org/2000/svg">
<path d="M11.5 23C17.8513 23 23 17.8513 23 11.5C23 5.14873 17.8513 0 11.5 0C5.14873 0 0 5.14873 0 11.5C0 17.8513 5.14873 23 11.5 23Z" fill="white"/>
<path d="M7.81005 9.98396L11.5 6.294L15.1917 9.98555L17.3387 7.83855L11.5 2L5.6632 7.8368L7.81013 9.9838L7.81005 9.98396ZM2 11.5L4.14708 9.35262L6.294 11.4995L4.14692 13.6466L2 11.5ZM7.81005 13.0163L11.5 16.706L15.1916 13.0145L17.3398 15.1604L17.3387 15.1615L11.5 21L5.6632 15.1632L5.66016 15.1602L7.81028 13.0161L7.81005 13.0163ZM16.706 11.5009L18.8531 9.35384L21 11.5008L18.853 13.6478L16.706 11.5009Z" fill="black"/>
<path d="M13.6775 11.499H13.6784L11.5 9.32031L9.88977 10.9301L9.70478 11.1152L9.32326 11.4968L9.32022 11.4997L9.32326 11.5029L11.5 13.6799L13.6786 11.5013L13.6797 11.5L13.6777 11.499" fill="black"/>
</svg>
