<svg width="24" height="24" viewBox="0 0 24 24" fill="none" xmlns="http://www.w3.org/2000/svg">
<path d="M12 24C18.6274 24 24 18.6274 24 12C24 5.37258 18.6274 0 12 0C5.37258 0 0 5.37258 0 12C0 18.6274 5.37258 24 12 24Z" fill="white"/>
<path d="M11.9751 3L14.1988 5.27726L8.59938 10.8767L6.3757 8.65297L11.9751 3Z" fill="black"/>
<path d="M15.3508 6.37573L17.5745 8.653L8.59938 17.6281L6.3757 15.4044L15.3508 6.37573Z" fill="black"/>
<path d="M5.22368 9.7514L7.44736 12.0287L5.22368 14.2524L3 12.0287L5.22368 9.7514Z" fill="black"/>
<path d="M18.7265 9.7514L20.9502 12.0287L11.9751 21.0038L9.7514 18.7801L18.7265 9.7514Z" fill="black"/>
</svg>
