<svg width="24" height="24" viewBox="0 0 24 24" fill="none" xmlns="http://www.w3.org/2000/svg">
<path d="M12 24C18.6274 24 24 18.6274 24 12C24 5.37258 18.6274 0 12 0C5.37258 0 0 5.37258 0 12C0 18.6274 5.37258 24 12 24Z" fill="white"/>
<path d="M11.9802 3.0266V3.03547C11.9891 3.0798 11.9891 3.133 11.9891 3.18621V9.57931C11.9802 9.61478 11.9536 9.62365 11.927 9.64138C11.7408 9.73005 11.5634 9.80985 11.3772 9.88966C11.1201 10.0049 10.8541 10.1291 10.5969 10.2443L9.6659 10.67C9.40875 10.7852 9.15161 10.9005 8.90334 11.0158C8.60186 11.1576 8.29151 11.2906 7.99004 11.4325C7.73289 11.5478 7.47575 11.6719 7.20974 11.7872C6.99693 11.8847 6.78412 11.9734 6.58018 12.0709C6.56245 12.0798 6.54471 12.0887 6.52698 12.0887C6.51811 12.0887 6.51811 12.0887 6.50925 12.0798L6.74866 11.6808C7.20974 10.9182 7.66196 10.1645 8.12304 9.40197C8.61072 8.58621 9.10728 7.77044 9.59496 6.95468C10.0472 6.20099 10.5083 5.44729 10.9605 4.6936C11.2886 4.14384 11.6255 3.59409 11.9536 3.04433C11.9624 3.0266 11.9713 3.01773 11.9713 3H11.9802C11.9713 3.00887 11.9802 3.01773 11.9802 3.0266Z" fill="black"/>
<path d="M17.4241 12.0798L17.433 12.0886L16.1295 12.86L12.033 15.2807C12.0152 15.2896 11.9975 15.2985 11.9886 15.3073C11.962 15.3073 11.962 15.2807 11.962 15.2719V15.1921V9.71227C11.962 9.68566 11.962 9.6502 11.9709 9.6236C11.9798 9.58813 12.0064 9.59699 12.033 9.60586C12.1482 9.65906 12.2724 9.71227 12.3877 9.76547C12.7335 9.92507 13.0793 10.0847 13.4251 10.2354C13.7266 10.3684 14.0192 10.5103 14.3207 10.6433C14.6221 10.7763 14.9236 10.9182 15.2251 11.0512C15.4822 11.1665 15.7482 11.2906 16.0054 11.4059C16.2625 11.5211 16.5285 11.6453 16.7857 11.7605C16.9896 11.8492 17.1936 11.9467 17.3975 12.0354C17.3975 12.062 17.4064 12.0709 17.4241 12.0798Z" fill="#474747"/>
<path d="M11.9798 20.8138C11.9798 20.8226 11.9709 20.8315 11.9709 20.8404H11.9621C11.9621 20.8226 11.9443 20.8138 11.9355 20.796C11.3857 20.0246 10.836 19.2443 10.2862 18.4729C9.7276 17.6837 9.16011 16.8857 8.60149 16.0965C8.0606 15.3339 7.51085 14.5625 6.96996 13.8C6.82809 13.596 6.68622 13.4009 6.54435 13.197C6.53548 13.1793 6.52661 13.1704 6.50888 13.1438C6.53548 13.1438 6.55322 13.1615 6.56208 13.1704C7.33351 13.6226 8.09607 14.0748 8.8675 14.527C9.7542 15.0502 10.632 15.5734 11.5187 16.0965L11.9709 16.3625C11.9887 16.3803 11.9887 16.398 11.9887 16.4157V20.6896C11.9887 20.7339 11.9887 20.7783 11.9798 20.8138Z" fill="#313131"/>
<path d="M6.5 12.0975V12.0886C6.78374 11.9645 7.05862 11.8315 7.34236 11.7074C7.70591 11.5389 8.06946 11.3793 8.433 11.2108C8.70788 11.0867 8.99163 10.9537 9.2665 10.8295C9.67438 10.6433 10.0734 10.466 10.4813 10.2798C10.7562 10.1556 11.031 10.0315 11.3148 9.89849C11.5099 9.80982 11.7138 9.72115 11.9089 9.63248C11.9266 9.62362 11.9532 9.61475 11.9621 9.59702C11.9709 9.59702 11.9709 9.60588 11.9621 9.61475V15.2453C11.9621 15.2719 11.9532 15.2985 11.9709 15.3162C11.9532 15.3428 11.9355 15.3162 11.9266 15.3074C11.8468 15.263 11.767 15.2187 11.6872 15.1655C9.97586 14.1547 8.25566 13.1349 6.54433 12.1241C6.53547 12.1152 6.51773 12.1064 6.5 12.0975Z" fill="#474747"/>
<path d="M17.4064 13.1438H17.4153C17.4153 13.1615 17.3975 13.1793 17.3887 13.197C15.7571 15.4936 14.1256 17.799 12.4941 20.0955C12.3256 20.3349 12.1483 20.5743 11.9798 20.8138C11.9709 20.8049 11.9709 20.796 11.9709 20.7871V20.7339V16.4335V16.3537C12.3433 16.132 12.7069 15.9192 13.0793 15.6975C14.5157 14.8463 15.9522 14.0039 17.3798 13.1527C17.3887 13.1615 17.3975 13.1527 17.4064 13.1438Z" fill="#313131"/>
<path d="M11.9709 9.61474V9.59701V9.5438V3.10637C11.9709 3.07977 11.9621 3.06203 11.9798 3.03543C13.7798 6.02361 15.5798 9.00292 17.3709 11.9911C17.3887 12.0177 17.4153 12.0532 17.4241 12.0886C17.3 12.0443 17.1847 11.9822 17.0694 11.929C16.9276 11.867 16.7768 11.796 16.635 11.734C16.5463 11.6896 16.4488 11.6541 16.3601 11.6098C16.2093 11.5389 16.0586 11.4768 15.9079 11.4059C15.8192 11.3704 15.7305 11.3261 15.6419 11.2817L15.0566 11.0157C14.9591 10.9714 14.8616 10.9271 14.7552 10.8827L14.3295 10.6965C14.2409 10.661 14.1522 10.6167 14.0635 10.5724L13.4783 10.3064C13.3808 10.262 13.2832 10.2177 13.1768 10.1734L12.7512 9.98715C12.6537 9.94282 12.565 9.89849 12.4675 9.85415C12.299 9.77435 12.1305 9.69454 11.9532 9.62361C11.9798 9.61474 11.9709 9.61474 11.9709 9.61474Z" fill="black"/>
</svg>
