<svg width="24" height="24" viewBox="0 0 24 24" fill="none" xmlns="http://www.w3.org/2000/svg">
<path d="M12 0C18.6264 0 24 5.3736 24 12C24 18.6264 18.6264 24 12 24C5.3736 24 0 18.6264 0 12C0 5.3736 5.3736 0 12 0Z" fill="white"/>
<path fill-rule="evenodd" clip-rule="evenodd" d="M5.54883 10.8552H16.6536C16.7928 10.8552 16.9248 10.9104 17.0208 11.0088L18.7776 12.7776C19.1016 13.104 18.8712 13.6608 18.4104 13.6608H7.30563C7.16643 13.6608 7.03443 13.6056 6.93843 13.5072L5.18163 11.7384C4.85523 11.412 5.08803 10.8552 5.54883 10.8552ZM5.18163 8.5104L6.93843 6.7416C7.03683 6.6432 7.16883 6.588 7.30563 6.588H18.408C18.8688 6.588 19.1016 7.1448 18.7752 7.4712L17.0208 9.24C16.9224 9.3384 16.7904 9.3936 16.6536 9.3936H5.54883C5.08803 9.3936 4.85523 8.8368 5.18163 8.5104ZM18.7752 16.0056L17.0184 17.7744C16.92 17.8728 16.788 17.928 16.6512 17.928H5.54883C5.08803 17.928 4.85523 17.3712 5.18163 17.0448L6.93843 15.276C7.03683 15.1776 7.16883 15.1224 7.30563 15.1224H18.408C18.8688 15.1224 19.1016 15.6792 18.7752 16.0056Z" fill="black"/>
</svg>
