<svg width="24" height="67" viewBox="0 0 24 67" fill="none" xmlns="http://www.w3.org/2000/svg">
<path d="M13.5 2C13.5 1.17157 12.8284 0.5 12 0.5C11.1716 0.5 10.5 1.17157 10.5 2H13.5ZM10.9393 66.0607C11.5251 66.6464 12.4749 66.6464 13.0607 66.0607L22.6066 56.5147C23.1924 55.9289 23.1924 54.9792 22.6066 54.3934C22.0208 53.8076 21.0711 53.8076 20.4853 54.3934L12 62.8787L3.51472 54.3934C2.92893 53.8076 1.97919 53.8076 1.3934 54.3934C0.807611 54.9792 0.807611 55.9289 1.3934 56.5147L10.9393 66.0607ZM10.5 2L10.5 65H13.5L13.5 2H10.5Z" fill="white"/>
</svg>
