<svg width="24" height="114" viewBox="0 0 24 114" fill="none" xmlns="http://www.w3.org/2000/svg">
<path d="M13.5 2C13.5 1.17157 12.8284 0.5 12 0.5C11.1716 0.5 10.5 1.17157 10.5 2L13.5 2ZM10.9393 113.061C11.5251 113.646 12.4749 113.646 13.0607 113.061L22.6066 103.515C23.1924 102.929 23.1924 101.979 22.6066 101.393C22.0208 100.808 21.0711 100.808 20.4853 101.393L12 109.879L3.51472 101.393C2.92893 100.808 1.97919 100.808 1.3934 101.393C0.807611 101.979 0.807611 102.929 1.3934 103.515L10.9393 113.061ZM10.5 2L10.5 112H13.5L13.5 2L10.5 2Z" fill="white"/>
</svg>
