<svg id="Layer_1" data-name="Layer 1" xmlns="http://www.w3.org/2000/svg" viewBox="0 0 649.28 153.33"><defs><style>.cls-1{fill:#fff;}.cls-2{fill:#f47b20;}</style></defs><path class="cls-1" d="M104.63,152.66h-70Q0,152.66,0,121.77V32.1Q0,14.86,8.4,7.44,16.14.68,33.37.67h69.75V44.8H65.66V32.1H42v89.13H65.66V92.16H53.17V60.73h51.46Z"/><path class="cls-1" d="M168.13,152.66H112.59V125.32h9.9V28h-9.9V.67h45.86V125.32h9.68Z"/><path class="cls-1" d="M263.29,127.69q0,25-25.84,25H200.86q-26.06,0-26.05-25V76.23q0-25,26.05-25h36.59q25.85,0,25.84,25Zm-36-1.94V78.17H210.76v47.58Z"/><path class="cls-1" d="M368.56,129q0,12.27-4.76,17.65-5,6-17.07,6H328.79l-13-12.92v12.92H270.18V125.32h9.68V28h-9.68V.67h45.64V64.18l13-12.92h19.45q11.44,0,15.89,4.63t4.43,16Zm-35.95-3.66V78.6H315.82v46.72Z"/><polygon class="cls-2" points="375.83 0 425.87 76.66 375.83 153.33 551.17 153.33 599.66 76.66 550.61 0 500.71 0 550.04 76.66 526.78 112.92 454.46 112.92 475.76 76.66 451.94 39.64 513.88 39.64 488.94 0 375.83 0"/><polygon class="cls-1" points="577.24 37.36 601.41 74 649.27 0 599.66 0 577.24 37.36"/><polygon class="cls-1" points="577.24 115.97 601.41 79.33 649.27 153.33 599.66 153.33 577.24 115.97"/></svg>