<svg width="160" height="147" viewBox="0 0 160 147" fill="none" xmlns="http://www.w3.org/2000/svg">
<path d="M118.305 50.6626H156.633V12.3342" stroke="white" stroke-width="5.46995" stroke-linecap="round" stroke-linejoin="round"/>
<path d="M30.1493 23.5941C36.6683 17.0656 44.4104 11.8863 52.9327 8.35261C61.4551 4.81889 70.5906 3 79.8165 3C89.0425 3 98.1779 4.81889 106.7 8.35261C115.223 11.8863 122.965 17.0656 129.484 23.5941L156.633 50.6635" stroke="white" stroke-width="5.46995" stroke-linecap="round" stroke-linejoin="round"/>
<path d="M41.3284 95.8594H3V134.188" stroke="white" stroke-width="5.46995" stroke-linecap="round" stroke-linejoin="round"/>
<path d="M129.484 122.929C122.965 129.457 115.223 134.637 106.7 138.17C98.1779 141.704 89.0425 143.523 79.8165 143.523C70.5906 143.523 61.4551 141.704 52.9327 138.17C44.4104 134.637 36.6683 129.457 30.1493 122.929L3 95.8594" stroke="white" stroke-width="5.46995" stroke-linecap="round" stroke-linejoin="round"/>
</svg>
