<svg width="157" height="141" viewBox="0 0 157 141" fill="none" xmlns="http://www.w3.org/2000/svg">
<path d="M7.94521 61.4523H43.6165V138.74H7.94521C6.36844 138.74 4.85625 138.114 3.74131 136.999C2.62637 135.884 2 134.372 2 132.795V67.3975C2 65.8207 2.62637 64.3085 3.74131 63.1936C4.85625 62.0786 6.36844 61.4523 7.94521 61.4523V61.4523Z" stroke="white" stroke-width="3.82424" stroke-linecap="round" stroke-linejoin="round"/>
<path d="M43.6165 61.4521L73.3425 2C79.6496 2 85.6983 4.50547 90.1581 8.96524C94.6179 13.425 97.1233 19.4738 97.1233 25.7808V43.6165H143.124C144.81 43.6123 146.478 43.969 148.014 44.6626C149.551 45.3561 150.922 46.3705 152.034 47.6376C153.146 48.9047 153.974 50.3951 154.463 52.0088C154.951 53.6224 155.089 55.322 154.866 56.9932L145.948 128.336C145.588 131.2 144.197 133.835 142.037 135.749C139.876 137.663 137.093 138.726 134.207 138.74H43.6165" stroke="white" stroke-width="3.82424" stroke-linecap="round" stroke-linejoin="round"/>
</svg>
